<?xml version="1.0" encoding="utf-8"?>
<svg xmlns="http://www.w3.org/2000/svg" height="16" width="16" viewBox="0 0 16 16">
  <g>
    <path id="path1" transform="rotate(270,8,8) translate(0,0.208754489718797) scale(0.499999880790739,0.499999880790739)  " fill="#000000" d="M4.9629898,25.440168C4.564003,25.440168 4.0650101,25.640182 3.7659989,25.939165 3.0680008,26.638176 3.0680008,27.635191 3.7659989,28.3342 4.4639969,29.032204 5.4620133,29.032204 6.1600113,28.3342 6.8589859,27.635191 6.8589859,26.638176 6.1600113,25.939165 5.760994,25.640182 5.3620072,25.440168 4.9629898,25.440168z M18.432014,18.457121L22.422005,22.447138 24.816994,22.946165 29.107002,29.431192 27.509987,31.027212 21.025002,26.737175 20.526985,24.343178 16.535988,20.352123z M8.1560135,18.357115L13.643013,23.84415C11.048988,26.638176 8.9539872,28.932196 7.9560013,29.930189 6.359993,31.526207 3.6659928,31.626215 2.070015,29.930189 0.47400668,28.3342 0.47400668,25.640182 2.070015,24.044165z M2.967995,6.7840408C2.768013,6.7840408 2.5690079,6.8840479 2.4690018,6.9840545 2.1699906,7.2830371 2.1699906,7.7820638 2.4690018,8.0810469L11.746986,17.359123C12.047005,17.659113 12.544991,17.659113 12.845009,17.359123 13.14399,17.06011 13.14399,16.561113 12.845009,16.2621L3.5659867,6.9840545C3.3670121,6.8840479,3.1669998,6.7840408,2.967995,6.7840408z M5.2620011,4.4890431C5.0629959,4.4890431 4.8630143,4.5890192 4.7640152,4.6890262 4.3649979,4.9880394 4.3649979,5.4870356 4.7640152,5.8860554L14.042,15.164101C14.341011,15.46409 14.840004,15.46409 15.139015,15.164101 15.439003,14.865087 15.439003,14.366092 15.139015,14.067109L5.8610001,4.6890262C5.661995,4.5890192,5.4620133,4.4890431,5.2620011,4.4890431z M4.3649979,2.3940283C5.4620133,2.3940281,6.5589981,2.7930175,7.3580094,3.5920337L19.328987,15.46409 13.342995,21.450153 1.2720107,9.6770657C-0.42400357,7.9810704 -0.42400357,5.2880291 1.2720107,3.6910337 2.1699906,2.7930175 3.267006,2.3940281 4.3649979,2.3940283z M24.217995,0C25.31501,-8.5992724E-08,26.312996,0.20001344,27.211006,0.59900296L23.021004,4.7890328C22.223,5.5870422,22.223,6.7840408,23.021004,7.4820436L24.617012,9.079069C25.414986,9.8770789,26.612007,9.8770789,27.311012,9.079069L31.501015,4.9880394C31.799995,5.8860554 32.000008,6.7840408 32.000008,7.7820638 32.000008,12.07207 28.508003,15.564097 24.217995,15.564097 19.927986,15.564097 16.436012,12.07207 16.436012,7.7820638 16.436012,3.4920272 19.927986,-8.5992724E-08 24.217995,0z" />
  </g>
</svg>

